<svg width="256" height="256" viewBox="0 0 256 256" fill="none" xmlns="http://www.w3.org/2000/svg">
<rect width="256" height="256" rx="74" fill="#3870FF"/>
<path d="M106.035 85.671C72.6667 90.6006 60.4531 124.074 58.5173 140.194C58.3214 141.648 46.1512 152.726 49.7722 127.905C56.0578 93.2521 73.81 80.5479 74.3785 80.0089C89.2384 65.9198 123.638 60.5885 144.329 73.1394C181.301 99.3256 164.21 135.521 157.686 140.194C151.161 144.867 143.372 143.171 146.037 135.521C155.739 119.527 147.745 79.5091 106.035 85.671Z" fill="white"/>
<path d="M176.016 132.921C190.15 102.084 168.506 73.9059 155.918 63.6714C154.794 62.7302 152.091 46.5338 171.123 62.8336C197.018 86.6297 198.035 108.413 198.18 109.181C201.957 129.257 187.598 161.181 165.617 171.977C123.157 189.265 101.885 155.512 101.507 147.504C101.13 139.495 106.839 133.816 111.856 140.149C120.076 156.881 158.349 171.468 176.016 132.921Z" fill="white"/>
<path d="M101.795 166.647C122.988 193.389 158.01 187.245 172.872 180.831C174.223 180.271 189.942 185.356 166.733 194.672C133.706 206.6 113.752 197.445 112.999 197.218C93.3216 191.293 71.2599 163.849 71.5567 139.415C75.3234 93.8632 115.166 90.6217 122.504 93.9846C129.841 97.3475 132.337 105.022 124.397 106.537C105.7 106.087 75.3056 133.219 101.795 166.647Z" fill="white"/>
</svg>
