<svg width="32" height="32" viewBox="0 0 32 32" fill="none" xmlns="http://www.w3.org/2000/svg">
<rect width="32" height="32" rx="16" fill="#3870FF"/>
<path d="M13.2546 10.709C9.08358 11.3252 7.55688 15.5093 7.31491 17.5244C7.29042 17.7061 5.76914 19.0908 6.22177 15.9882C7.00747 11.6566 9.2265 10.0686 9.29755 10.0012C11.155 8.2401 15.455 7.57369 18.0414 9.14254C22.6629 12.4158 20.5265 16.9402 19.711 17.5244C18.8954 18.1086 17.9218 17.8965 18.2549 16.9402C19.4676 14.941 18.4684 9.93876 13.2546 10.709Z" fill="white"/>
<path d="M22.0024 16.6152C23.7691 12.7606 21.0637 9.2383 19.4901 7.95899C19.3496 7.84133 19.0118 5.81679 21.3907 7.85427C24.6276 10.8288 24.7548 13.5516 24.7729 13.6476C25.245 16.1572 23.4501 20.1476 20.7025 21.4972C15.395 23.6582 12.7359 19.4391 12.6887 18.438C12.6416 17.437 13.3553 16.7271 13.9824 17.5187C15.0099 19.6101 19.794 21.4335 22.0024 16.6152Z" fill="white"/>
<path d="M12.7246 20.8307C15.3736 24.1734 19.7513 23.4055 21.6091 22.6037C21.778 22.5337 23.7429 23.1693 20.8417 24.3338C16.7134 25.8248 14.2191 24.6804 14.125 24.6521C11.6653 23.9114 8.9076 20.481 8.94471 17.4267C9.41555 11.7327 14.3959 11.3275 15.3131 11.7479C16.2303 12.1683 16.5422 13.1275 15.5497 13.317C13.2126 13.2607 9.41332 16.6522 12.7246 20.8307Z" fill="white"/>
</svg>
