<svg width="150" height="28" viewBox="0 0 150 28" fill="none" xmlns="http://www.w3.org/2000/svg">
<rect width="149.96" height="26.6931" transform="translate(0 0.653564)" fill="white"/>
<path d="M10.6347 6.24017C4.40198 7.14879 2.12067 13.3185 1.75909 16.2898C1.7225 16.5578 -0.550723 18.5996 0.125632 14.0246C1.29968 7.63752 4.61554 5.29588 4.72172 5.19654C7.49734 2.59965 13.9227 1.61699 17.7874 3.93035C24.6933 8.75698 21.501 15.4284 20.2823 16.2898C19.0636 17.1512 17.6088 16.8385 18.1065 15.4284C19.9186 12.4805 18.4255 5.10441 10.6347 6.24017Z" fill="#04091C"/>
<path d="M23.4953 15.048C26.0873 9.30746 22.1181 4.06186 19.8096 2.15664C19.6035 1.98142 19.1078 -1.03364 22.5979 2.00068C27.3467 6.43047 27.5333 10.4855 27.5598 10.6285C28.2526 14.3659 25.6192 20.3086 21.5883 22.3185C13.8017 25.5367 9.90064 19.2534 9.83138 17.7626C9.76216 16.2718 10.8093 15.2145 11.7292 16.3935C13.2367 19.5082 20.2554 22.2237 23.4953 15.048Z" fill="#04091C"/>
<path d="M9.58554 21.0536C13.5065 25.9828 19.9863 24.8504 22.736 23.668C22.9861 23.5648 25.8943 24.5022 21.6002 26.2194C15.4896 28.4181 11.7977 26.7305 11.6584 26.6887C8.01772 25.5965 3.93586 20.5379 3.99078 16.034C4.6877 7.63741 12.0594 7.0399 13.417 7.65978C14.7746 8.27966 15.2363 9.69425 13.7672 9.97358C10.3079 9.89057 4.68441 14.8919 9.58554 21.0536Z" fill="#04091C"/>
<path d="M45.0962 23.2612C43.6514 23.2612 42.3704 22.953 41.253 22.3365C40.1357 21.7201 39.2592 20.8532 38.6235 19.7359C37.9878 18.6186 37.6699 17.3279 37.6699 15.8638C37.6699 14.3805 37.9781 13.0609 38.5946 11.905C39.2303 10.7492 40.0972 9.85339 41.1953 9.21767C42.3126 8.56269 43.6225 8.2352 45.1251 8.2352C46.5314 8.2352 47.7739 8.54343 48.8527 9.15988C49.9315 9.77633 50.7695 10.624 51.3667 11.7027C51.9831 12.7623 52.2914 13.947 52.2914 15.257C52.2914 15.4689 52.2817 15.6904 52.2625 15.9216C52.2625 16.1528 52.2528 16.3936 52.2336 16.644H41.3397C41.4168 17.7613 41.8021 18.6378 42.4956 19.2735C43.2084 19.9093 44.0656 20.2271 45.0673 20.2271C45.8186 20.2271 46.4447 20.0634 46.9456 19.7359C47.4657 19.3891 47.851 18.946 48.1014 18.4067H51.8579C51.5882 19.3121 51.1355 20.1404 50.4998 20.8917C49.8834 21.6238 49.1128 22.2017 48.1881 22.6255C47.2827 23.0493 46.2521 23.2612 45.0962 23.2612ZM45.1251 11.2404C44.2197 11.2404 43.4203 11.5005 42.7267 12.0206C42.0332 12.5215 41.5902 13.292 41.3975 14.3323H48.5349C48.4771 13.3884 48.1303 12.6371 47.4946 12.0784C46.8589 11.5197 46.0691 11.2404 45.1251 11.2404Z" fill="#04091C"/>
<path d="M57.2651 22.9144L52.006 8.58196H55.8781L59.519 19.418L63.1599 8.58196H67.032L61.744 22.9144H57.2651Z" fill="#04091C"/>
<path d="M74.1786 23.2612C72.7338 23.2612 71.4528 22.953 70.3354 22.3365C69.2181 21.7201 68.3416 20.8532 67.7059 19.7359C67.0702 18.6186 66.7523 17.3279 66.7523 15.8638C66.7523 14.3805 67.0605 13.0609 67.677 11.905C68.3127 10.7492 69.1796 9.85339 70.2776 9.21767C71.395 8.56269 72.7049 8.2352 74.2075 8.2352C75.6138 8.2352 76.8563 8.54343 77.9351 9.15988C79.0139 9.77633 79.8519 10.624 80.4491 11.7027C81.0655 12.7623 81.3738 13.947 81.3738 15.257C81.3738 15.4689 81.3641 15.6904 81.3449 15.9216C81.3449 16.1528 81.3352 16.3936 81.316 16.644H70.4221C70.4992 17.7613 70.8845 18.6378 71.578 19.2735C72.2907 19.9093 73.148 20.2271 74.1497 20.2271C74.901 20.2271 75.5271 20.0634 76.028 19.7359C76.5481 19.3891 76.9334 18.946 77.1838 18.4067H80.9403C80.6706 19.3121 80.2179 20.1404 79.5822 20.8917C78.9658 21.6238 78.1952 22.2017 77.2705 22.6255C76.3651 23.0493 75.3345 23.2612 74.1786 23.2612ZM74.2075 11.2404C73.3021 11.2404 72.5027 11.5005 71.8091 12.0206C71.1156 12.5215 70.6726 13.292 70.4799 14.3323H77.6173C77.5595 13.3884 77.2127 12.6371 76.577 12.0784C75.9413 11.5197 75.1515 11.2404 74.2075 11.2404Z" fill="#04091C"/>
<path d="M83.0398 22.9144V8.58196H86.3051L86.594 11.0092C87.0371 10.1616 87.6728 9.48737 88.5012 8.9865C89.3488 8.48564 90.3409 8.2352 91.4775 8.2352C93.2498 8.2352 94.6272 8.79386 95.6096 9.91118C96.5921 11.0285 97.0833 12.6659 97.0833 14.8235V22.9144H93.3846V15.1703C93.3846 13.9374 93.1342 12.9934 92.6333 12.3385C92.1325 11.6835 91.3523 11.356 90.2928 11.356C89.2525 11.356 88.3952 11.722 87.721 12.454C87.066 13.1861 86.7385 14.2071 86.7385 15.517V22.9144H83.0398Z" fill="#04091C"/>
<path d="M105.561 22.9144C104.059 22.9144 102.855 22.5484 101.949 21.8164C101.044 21.0844 100.591 19.784 100.591 17.9154V11.6738H98.1351V8.58196H100.591L101.025 4.73877H104.29V8.58196H108.162V11.6738H104.29V17.9443C104.29 18.6378 104.434 19.1194 104.723 19.3891C105.032 19.6396 105.552 19.7648 106.284 19.7648H108.075V22.9144H105.561Z" fill="#04091C"/>
<path d="M115.268 23.2612C113.476 23.2612 112.089 22.7025 111.107 21.5852C110.143 20.4679 109.662 18.8305 109.662 16.6729V8.58196H113.332V16.3261C113.332 17.559 113.582 18.503 114.083 19.158C114.584 19.8129 115.374 20.1404 116.452 20.1404C117.473 20.1404 118.311 19.7744 118.966 19.0424C119.641 18.3103 119.978 17.2893 119.978 15.9794V8.58196H123.676V22.9144H120.411L120.122 20.4872C119.679 21.3348 119.034 22.009 118.186 22.5099C117.358 23.0108 116.385 23.2612 115.268 23.2612Z" fill="#04091C"/>
<path d="M130.97 23.2612C129.737 23.2612 128.725 23.0686 127.936 22.6833C127.146 22.2787 126.558 21.749 126.173 21.094C125.788 20.439 125.595 19.7166 125.595 18.9268C125.595 17.5976 126.115 16.5188 127.155 15.6904C128.196 14.8621 129.756 14.4479 131.837 14.4479H135.478V14.1011C135.478 13.1187 135.198 12.3963 134.64 11.9339C134.081 11.4716 133.387 11.2404 132.559 11.2404C131.808 11.2404 131.153 11.4234 130.594 11.7894C130.035 12.1362 129.689 12.6563 129.554 13.3498H125.942C126.038 12.3096 126.385 11.4041 126.982 10.6336C127.599 9.86302 128.388 9.27547 129.352 8.87092C130.315 8.44711 131.394 8.2352 132.588 8.2352C134.63 8.2352 136.238 8.7457 137.414 9.7667C138.589 10.7877 139.176 12.2325 139.176 14.1011V22.9144H136.027L135.68 20.6028C135.256 21.3733 134.659 22.009 133.888 22.5099C133.137 23.0108 132.164 23.2612 130.97 23.2612ZM131.808 20.3716C132.867 20.3716 133.686 20.0248 134.264 19.3313C134.861 18.6378 135.237 17.7806 135.391 16.7596H132.241C131.259 16.7596 130.556 16.9426 130.132 17.3086C129.708 17.6554 129.496 18.0888 129.496 18.6089C129.496 19.1676 129.708 19.601 130.132 19.9093C130.556 20.2175 131.114 20.3716 131.808 20.3716Z" fill="#04091C"/>
<path d="M141.261 22.9144V5.01043H144.96V22.9144H141.261Z" fill="#04091C"/>
<circle opacity="0.5" cx="1.5" cy="1.5" r="1.5" transform="matrix(-1 0 0 1 149.96 4.73877)" fill="#04091C"/>
</svg>
