<svg width="445" height="103" viewBox="0 0 445 103" fill="none" xmlns="http://www.w3.org/2000/svg">
<path d="M29.3761 31.6695C12.1596 34.1794 5.85792 51.2221 4.85914 59.4296C4.75805 60.17 -1.52126 65.81 0.347033 53.1725C3.59011 35.5294 12.7495 29.0611 13.0428 28.7867C20.7099 21.6133 38.4587 18.8989 49.1342 25.2891C68.2104 38.6217 59.3922 57.0502 56.0258 59.4296C52.6593 61.8091 48.6407 60.9454 50.0155 57.0502C55.0211 48.9072 50.8968 28.5322 29.3761 31.6695Z" fill="#183D54"/>
<path d="M64.9007 55.9995C72.0604 40.1425 61.0965 25.6526 54.7196 20.3898C54.1503 19.9058 52.7811 11.5773 62.4218 19.959C75.5393 32.1954 76.0549 43.3966 76.1281 43.7916C78.0416 54.1153 70.7674 70.531 59.6328 76.0829C38.1239 84.9726 27.3481 67.6161 27.1568 63.4981C26.9656 59.38 29.858 56.4596 32.3992 59.7162C36.5633 68.3199 55.9511 75.8209 64.9007 55.9995Z" fill="#F5732A"/>
<path d="M26.4779 72.5885C37.3087 86.2047 55.2078 83.0766 62.8035 79.8105C63.4942 79.5254 71.5276 82.1147 59.666 86.858C42.7868 92.9315 32.5886 88.2699 32.2038 88.1545C22.1471 85.1374 10.8718 71.164 11.0235 58.7229C12.9486 35.5291 33.3115 33.8786 37.0615 35.5909C40.8115 37.3032 42.0869 41.2107 38.0289 41.9823C28.4732 41.753 12.9395 55.5681 26.4779 72.5885Z" fill="#F5732A"/>
<path d="M109.48 79.96C105.48 79.96 101.933 79.1067 98.84 77.4C95.7467 75.6933 93.32 73.2933 91.56 70.2C89.8 67.1067 88.92 63.5333 88.92 59.48C88.92 55.3733 89.7733 51.72 91.48 48.52C93.24 45.32 95.64 42.84 98.68 41.08C101.773 39.2667 105.4 38.36 109.56 38.36C113.453 38.36 116.893 39.2133 119.88 40.92C122.867 42.6267 125.187 44.9733 126.84 47.96C128.547 50.8933 129.4 54.1733 129.4 57.8C129.4 58.3867 129.373 59 129.32 59.64C129.32 60.28 129.293 60.9467 129.24 61.64H99.08C99.2933 64.7333 100.36 67.16 102.28 68.92C104.253 70.68 106.627 71.56 109.4 71.56C111.48 71.56 113.213 71.1067 114.6 70.2C116.04 69.24 117.107 68.0133 117.8 66.52H128.2C127.453 69.0267 126.2 71.32 124.44 73.4C122.733 75.4267 120.6 77.0267 118.04 78.2C115.533 79.3733 112.68 79.96 109.48 79.96ZM109.56 46.68C107.053 46.68 104.84 47.4 102.92 48.84C101 50.2267 99.7733 52.36 99.24 55.24H119C118.84 52.6267 117.88 50.5467 116.12 49C114.36 47.4533 112.173 46.68 109.56 46.68ZM147.17 79L132.61 39.32H143.33L153.41 69.32L163.49 39.32H174.21L159.57 79H147.17ZM197.996 79.96C193.996 79.96 190.449 79.1067 187.356 77.4C184.262 75.6933 181.836 73.2933 180.076 70.2C178.316 67.1067 177.436 63.5333 177.436 59.48C177.436 55.3733 178.289 51.72 179.996 48.52C181.756 45.32 184.156 42.84 187.196 41.08C190.289 39.2667 193.916 38.36 198.076 38.36C201.969 38.36 205.409 39.2133 208.396 40.92C211.382 42.6267 213.702 44.9733 215.356 47.96C217.062 50.8933 217.916 54.1733 217.916 57.8C217.916 58.3867 217.889 59 217.836 59.64C217.836 60.28 217.809 60.9467 217.756 61.64H187.596C187.809 64.7333 188.876 67.16 190.796 68.92C192.769 70.68 195.142 71.56 197.916 71.56C199.996 71.56 201.729 71.1067 203.116 70.2C204.556 69.24 205.622 68.0133 206.316 66.52H216.716C215.969 69.0267 214.716 71.32 212.956 73.4C211.249 75.4267 209.116 77.0267 206.556 78.2C204.049 79.3733 201.196 79.96 197.996 79.96ZM198.076 46.68C195.569 46.68 193.356 47.4 191.436 48.84C189.516 50.2267 188.289 52.36 187.756 55.24H207.516C207.356 52.6267 206.396 50.5467 204.636 49C202.876 47.4533 200.689 46.68 198.076 46.68ZM226.528 79V39.32H235.568L236.368 46.04C237.595 43.6933 239.355 41.8267 241.648 40.44C243.995 39.0533 246.741 38.36 249.888 38.36C254.795 38.36 258.608 39.9067 261.328 43C264.048 46.0933 265.408 50.6267 265.408 56.6V79H255.168V57.56C255.168 54.1467 254.475 51.5333 253.088 49.72C251.701 47.9067 249.541 47 246.608 47C243.728 47 241.355 48.0133 239.488 50.04C237.675 52.0667 236.768 54.8933 236.768 58.52V79H226.528ZM292.88 79C288.72 79 285.387 77.9867 282.88 75.96C280.373 73.9333 279.12 70.3333 279.12 65.16V47.88H272.32V39.32H279.12L280.32 28.68H289.36V39.32H300.08V47.88H289.36V65.24C289.36 67.16 289.76 68.4933 290.56 69.24C291.413 69.9333 292.853 70.28 294.88 70.28H299.84V79H292.88ZM323.752 79.96C318.792 79.96 314.952 78.4133 312.232 75.32C309.565 72.2267 308.232 67.6933 308.232 61.72V39.32H318.392V60.76C318.392 64.1733 319.085 66.7867 320.472 68.6C321.859 70.4133 324.045 71.32 327.032 71.32C329.859 71.32 332.179 70.3067 333.992 68.28C335.859 66.2533 336.792 63.4267 336.792 59.8V39.32H347.032V79H337.992L337.192 72.28C335.965 74.6267 334.179 76.4933 331.832 77.88C329.539 79.2667 326.845 79.96 323.752 79.96ZM371.224 79.96C367.81 79.96 365.01 79.4267 362.824 78.36C360.637 77.24 359.01 75.7733 357.944 73.96C356.877 72.1467 356.344 70.1467 356.344 67.96C356.344 64.28 357.784 61.2933 360.664 59C363.544 56.7067 367.864 55.56 373.624 55.56H383.704V54.6C383.704 51.88 382.93 49.88 381.384 48.6C379.837 47.32 377.917 46.68 375.624 46.68C373.544 46.68 371.73 47.1867 370.184 48.2C368.637 49.16 367.677 50.6 367.304 52.52H357.304C357.57 49.64 358.53 47.1333 360.184 45C361.89 42.8667 364.077 41.24 366.744 40.12C369.41 38.9467 372.397 38.36 375.704 38.36C381.357 38.36 385.81 39.7733 389.064 42.6C392.317 45.4267 393.944 49.4267 393.944 54.6V79H385.224L384.264 72.6C383.09 74.7333 381.437 76.4933 379.304 77.88C377.224 79.2667 374.53 79.96 371.224 79.96ZM373.544 71.96C376.477 71.96 378.744 71 380.344 69.08C381.997 67.16 383.037 64.7867 383.464 61.96H374.744C372.024 61.96 370.077 62.4667 368.904 63.48C367.73 64.44 367.144 65.64 367.144 67.08C367.144 68.6267 367.73 69.8267 368.904 70.68C370.077 71.5333 371.624 71.96 373.544 71.96ZM403.716 79V21.4H413.956V79H403.716Z" fill="black"/>
</svg>
