<svg width="32" height="32" viewBox="0 0 32 32" fill="none" xmlns="http://www.w3.org/2000/svg">
<circle cx="15.0588" cy="15.0588" r="15.0088" fill="white" stroke="black" stroke-width="0.1"/>
<path d="M11.808 7.50799C5.99055 8.36974 3.86122 14.2213 3.52373 17.0393C3.48957 17.2935 1.3678 19.23 1.9991 14.891C3.09493 8.83327 6.18987 6.6124 6.28899 6.51816C8.87968 4.0552 14.877 3.12323 18.4842 5.3173C24.93 9.89501 21.9504 16.2224 20.8129 17.0393C19.6753 17.8563 18.3175 17.5598 18.782 16.2224C20.4734 13.4265 19.0798 6.43079 11.808 7.50799Z" fill="#183D54"/>
<path d="M23.8114 15.8631C26.2306 10.4186 22.5259 5.4436 20.3712 3.63663C20.1788 3.47046 19.7162 0.610881 22.9738 3.4887C27.4061 7.69003 27.5803 11.5359 27.6051 11.6716C28.2516 15.2162 25.7937 20.8525 22.0313 22.7587C14.7635 25.811 11.1224 19.8516 11.0578 18.4377C10.9931 17.0238 11.9705 16.0211 12.8291 17.1392C14.2362 20.0933 20.7873 22.6687 23.8114 15.8631Z" fill="#F5732A"/>
<path d="M10.8282 21.5596C14.4879 26.2347 20.5359 25.1607 23.1025 24.0393C23.3359 23.9414 26.0504 24.8304 22.0424 26.459C16.3389 28.5443 12.8929 26.9438 12.7629 26.9042C9.36475 25.8683 5.55484 21.0705 5.60612 16.7989C6.25661 8.83542 13.1372 8.26872 14.4043 8.85663C15.6715 9.44454 16.1024 10.7862 14.7312 11.0511C11.5023 10.9724 6.25353 15.7157 10.8282 21.5596Z" fill="#F5732A"/>
</svg>
