<svg width="541" height="58" viewBox="0 0 541 58" fill="none" xmlns="http://www.w3.org/2000/svg">
<path d="M146.489 26C144.556 26.0039 142.992 27.5741 142.996 29.5071C143 31.4401 144.57 33.0039 146.503 33L146.489 26ZM398 28.9878L362.959 8.85184L363.041 49.2663L398 28.9878ZM146.503 33L366.507 32.5519L366.493 25.5519L146.489 26L146.503 33Z" fill="#FF6501"/>
<rect x="7" y="1" width="128" height="55" rx="9" stroke="#FF6501" stroke-width="2"/>
<path d="M36.9396 34V22.8H41.0836C41.9796 22.8 42.7209 22.9493 43.3076 23.248C43.8942 23.5467 44.3316 23.9573 44.6196 24.48C44.9076 25.0027 45.0516 25.5893 45.0516 26.24C45.0516 26.8587 44.9129 27.4293 44.6356 27.952C44.3582 28.464 43.9262 28.88 43.3396 29.2C42.7529 29.5093 42.0009 29.664 41.0836 29.664H38.9876V34H36.9396ZM38.9876 28H40.9556C41.6702 28 42.1822 27.8453 42.4916 27.536C42.8116 27.216 42.9716 26.784 42.9716 26.24C42.9716 25.6853 42.8116 25.2533 42.4916 24.944C42.1822 24.624 41.6702 24.464 40.9556 24.464H38.9876V28ZM46.6103 34V26.064H48.4343L48.6263 27.552C48.9143 27.04 49.3036 26.6347 49.7943 26.336C50.2956 26.0267 50.8823 25.872 51.5543 25.872V28.032H50.9783C50.5303 28.032 50.1303 28.1013 49.7783 28.24C49.4263 28.3787 49.149 28.6187 48.9463 28.96C48.7543 29.3013 48.6583 29.776 48.6583 30.384V34H46.6103ZM56.6214 34.192C55.8534 34.192 55.1601 34.016 54.5414 33.664C53.9334 33.312 53.4481 32.8267 53.0854 32.208C52.7334 31.5787 52.5574 30.8533 52.5574 30.032C52.5574 29.2107 52.7388 28.4907 53.1014 27.872C53.4641 27.2427 53.9494 26.752 54.5574 26.4C55.1761 26.048 55.8694 25.872 56.6374 25.872C57.3948 25.872 58.0774 26.048 58.6854 26.4C59.3041 26.752 59.7894 27.2427 60.1414 27.872C60.5041 28.4907 60.6854 29.2107 60.6854 30.032C60.6854 30.8533 60.5041 31.5787 60.1414 32.208C59.7894 32.8267 59.3041 33.312 58.6854 33.664C58.0668 34.016 57.3788 34.192 56.6214 34.192ZM56.6214 32.416C57.1548 32.416 57.6188 32.2187 58.0134 31.824C58.4081 31.4187 58.6054 30.8213 58.6054 30.032C58.6054 29.2427 58.4081 28.6507 58.0134 28.256C57.6188 27.8507 57.1601 27.648 56.6374 27.648C56.0934 27.648 55.6241 27.8507 55.2294 28.256C54.8454 28.6507 54.6534 29.2427 54.6534 30.032C54.6534 30.8213 54.8454 31.4187 55.2294 31.824C55.6241 32.2187 56.0881 32.416 56.6214 32.416ZM66.1646 34.192C65.4179 34.192 64.7512 34.0107 64.1646 33.648C63.5779 33.2853 63.1139 32.7893 62.7726 32.16C62.4312 31.5307 62.2606 30.816 62.2606 30.016C62.2606 29.216 62.4312 28.5067 62.7726 27.888C63.1139 27.2587 63.5779 26.768 64.1646 26.416C64.7512 26.0533 65.4179 25.872 66.1646 25.872C66.7619 25.872 67.2846 25.984 67.7326 26.208C68.1806 26.432 68.5432 26.7467 68.8206 27.152V22.48H70.8686V34H69.0446L68.8206 32.864C68.5646 33.216 68.2232 33.5253 67.7966 33.792C67.3806 34.0587 66.8366 34.192 66.1646 34.192ZM66.5966 32.4C67.2579 32.4 67.7966 32.1813 68.2126 31.744C68.6392 31.296 68.8526 30.7253 68.8526 30.032C68.8526 29.3387 68.6392 28.7733 68.2126 28.336C67.7966 27.888 67.2579 27.664 66.5966 27.664C65.9459 27.664 65.4072 27.8827 64.9806 28.32C64.5539 28.7573 64.3406 29.3227 64.3406 30.016C64.3406 30.7093 64.5539 31.28 64.9806 31.728C65.4072 32.176 65.9459 32.4 66.5966 32.4ZM75.9301 34.192C74.9381 34.192 74.1701 33.8827 73.6261 33.264C73.0927 32.6453 72.8261 31.7387 72.8261 30.544V26.064H74.8581V30.352C74.8581 31.0347 74.9967 31.5573 75.2741 31.92C75.5514 32.2827 75.9887 32.464 76.5861 32.464C77.1514 32.464 77.6154 32.2613 77.9781 31.856C78.3514 31.4507 78.5381 30.8853 78.5381 30.16V26.064H80.5861V34H78.7781L78.6181 32.656C78.3727 33.1253 78.0154 33.4987 77.5461 33.776C77.0874 34.0533 76.5487 34.192 75.9301 34.192ZM86.5764 34.192C85.7658 34.192 85.0511 34.016 84.4324 33.664C83.8138 33.312 83.3231 32.8213 82.9604 32.192C82.6084 31.5627 82.4324 30.8427 82.4324 30.032C82.4324 29.2213 82.6084 28.5013 82.9604 27.872C83.3231 27.2427 83.8138 26.752 84.4324 26.4C85.0511 26.048 85.7658 25.872 86.5764 25.872C87.5898 25.872 88.4431 26.1387 89.1364 26.672C89.8298 27.1947 90.2724 27.92 90.4644 28.848H88.3044C88.1978 28.464 87.9844 28.1653 87.6644 27.952C87.3551 27.728 86.9871 27.616 86.5604 27.616C85.9951 27.616 85.5151 27.8293 85.1204 28.256C84.7258 28.6827 84.5284 29.2747 84.5284 30.032C84.5284 30.7893 84.7258 31.3813 85.1204 31.808C85.5151 32.2347 85.9951 32.448 86.5604 32.448C86.9871 32.448 87.3551 32.3413 87.6644 32.128C87.9844 31.9147 88.1978 31.6107 88.3044 31.216H90.4644C90.2724 32.112 89.8298 32.832 89.1364 33.376C88.4431 33.92 87.5898 34.192 86.5764 34.192ZM96.1382 34.192C95.3382 34.192 94.6289 34.0213 94.0102 33.68C93.3915 33.3387 92.9062 32.8587 92.5542 32.24C92.2022 31.6213 92.0262 30.9067 92.0262 30.096C92.0262 29.2747 92.1969 28.544 92.5382 27.904C92.8902 27.264 93.3702 26.768 93.9782 26.416C94.5969 26.0533 95.3222 25.872 96.1542 25.872C96.9329 25.872 97.6209 26.0427 98.2182 26.384C98.8155 26.7253 99.2795 27.1947 99.6102 27.792C99.9515 28.3787 100.122 29.0347 100.122 29.76C100.122 29.8773 100.117 30 100.106 30.128C100.106 30.256 100.101 30.3893 100.09 30.528H94.0582C94.1009 31.1467 94.3142 31.632 94.6982 31.984C95.0929 32.336 95.5675 32.512 96.1222 32.512C96.5382 32.512 96.8849 32.4213 97.1622 32.24C97.4502 32.048 97.6635 31.8027 97.8022 31.504H99.8822C99.7329 32.0053 99.4822 32.464 99.1302 32.88C98.7889 33.2853 98.3622 33.6053 97.8502 33.84C97.3489 34.0747 96.7782 34.192 96.1382 34.192ZM96.1542 27.536C95.6529 27.536 95.2102 27.68 94.8262 27.968C94.4422 28.2453 94.1969 28.672 94.0902 29.248H98.0422C98.0102 28.7253 97.8182 28.3093 97.4662 28C97.1142 27.6907 96.6769 27.536 96.1542 27.536ZM101.845 34V26.064H103.669L103.861 27.552C104.149 27.04 104.538 26.6347 105.029 26.336C105.53 26.0267 106.117 25.872 106.789 25.872V28.032H106.213C105.765 28.032 105.365 28.1013 105.013 28.24C104.661 28.3787 104.383 28.6187 104.181 28.96C103.989 29.3013 103.893 29.776 103.893 30.384V34H101.845Z" fill="black"/>
<rect x="405" y="2" width="128" height="55" rx="9" stroke="#FF6501" stroke-width="2"/>
<path d="M435.527 34.192C434.397 34.192 433.426 33.952 432.615 33.472C431.805 32.9813 431.181 32.304 430.743 31.44C430.306 30.5653 430.087 29.5573 430.087 28.416C430.087 27.2747 430.306 26.2667 430.743 25.392C431.181 24.5173 431.805 23.8347 432.615 23.344C433.426 22.8533 434.397 22.608 435.527 22.608C436.871 22.608 437.97 22.944 438.823 23.616C439.687 24.2773 440.226 25.2107 440.439 26.416H438.183C438.045 25.808 437.746 25.3333 437.287 24.992C436.839 24.64 436.242 24.464 435.495 24.464C434.461 24.464 433.65 24.816 433.063 25.52C432.477 26.224 432.183 27.1893 432.183 28.416C432.183 29.6427 432.477 30.608 433.063 31.312C433.65 32.0053 434.461 32.352 435.495 32.352C436.242 32.352 436.839 32.192 437.287 31.872C437.746 31.5413 438.045 31.088 438.183 30.512H440.439C440.226 31.664 439.687 32.5653 438.823 33.216C437.97 33.8667 436.871 34.192 435.527 34.192ZM446.012 34.192C445.244 34.192 444.551 34.016 443.932 33.664C443.324 33.312 442.839 32.8267 442.476 32.208C442.124 31.5787 441.948 30.8533 441.948 30.032C441.948 29.2107 442.129 28.4907 442.492 27.872C442.855 27.2427 443.34 26.752 443.948 26.4C444.567 26.048 445.26 25.872 446.028 25.872C446.785 25.872 447.468 26.048 448.076 26.4C448.695 26.752 449.18 27.2427 449.532 27.872C449.895 28.4907 450.076 29.2107 450.076 30.032C450.076 30.8533 449.895 31.5787 449.532 32.208C449.18 32.8267 448.695 33.312 448.076 33.664C447.457 34.016 446.769 34.192 446.012 34.192ZM446.012 32.416C446.545 32.416 447.009 32.2187 447.404 31.824C447.799 31.4187 447.996 30.8213 447.996 30.032C447.996 29.2427 447.799 28.6507 447.404 28.256C447.009 27.8507 446.551 27.648 446.028 27.648C445.484 27.648 445.015 27.8507 444.62 28.256C444.236 28.6507 444.044 29.2427 444.044 30.032C444.044 30.8213 444.236 31.4187 444.62 31.824C445.015 32.2187 445.479 32.416 446.012 32.416ZM451.907 34V26.064H453.715L453.875 27.408C454.121 26.9387 454.473 26.5653 454.931 26.288C455.401 26.0107 455.95 25.872 456.579 25.872C457.561 25.872 458.323 26.1813 458.867 26.8C459.411 27.4187 459.683 28.3253 459.683 29.52V34H457.635V29.712C457.635 29.0293 457.497 28.5067 457.219 28.144C456.942 27.7813 456.51 27.6 455.923 27.6C455.347 27.6 454.873 27.8027 454.499 28.208C454.137 28.6133 453.955 29.1787 453.955 29.904V34H451.907ZM464.922 34.192C464.218 34.192 463.599 34.08 463.066 33.856C462.532 33.6213 462.106 33.3013 461.786 32.896C461.466 32.4907 461.274 32.0213 461.21 31.488H463.274C463.338 31.7973 463.508 32.064 463.786 32.288C464.074 32.5013 464.442 32.608 464.89 32.608C465.338 32.608 465.663 32.5173 465.866 32.336C466.079 32.1547 466.186 31.9467 466.186 31.712C466.186 31.3707 466.036 31.1413 465.738 31.024C465.439 30.896 465.023 30.7733 464.49 30.656C464.148 30.5813 463.802 30.4907 463.45 30.384C463.098 30.2773 462.772 30.144 462.474 29.984C462.186 29.8133 461.951 29.6 461.77 29.344C461.588 29.0773 461.498 28.752 461.498 28.368C461.498 27.664 461.775 27.072 462.33 26.592C462.895 26.112 463.684 25.872 464.698 25.872C465.636 25.872 466.383 26.0907 466.938 26.528C467.503 26.9653 467.839 27.568 467.946 28.336H466.01C465.892 27.7493 465.45 27.456 464.682 27.456C464.298 27.456 463.999 27.5307 463.786 27.68C463.583 27.8293 463.482 28.016 463.482 28.24C463.482 28.4747 463.636 28.6613 463.946 28.8C464.255 28.9387 464.666 29.0667 465.178 29.184C465.732 29.312 466.239 29.456 466.698 29.616C467.167 29.7653 467.54 29.9947 467.818 30.304C468.095 30.6027 468.234 31.0347 468.234 31.6C468.244 32.0907 468.116 32.5333 467.85 32.928C467.583 33.3227 467.199 33.632 466.698 33.856C466.196 34.08 465.604 34.192 464.922 34.192ZM473.024 34.192C472.032 34.192 471.264 33.8827 470.72 33.264C470.186 32.6453 469.92 31.7387 469.92 30.544V26.064H471.952V30.352C471.952 31.0347 472.09 31.5573 472.368 31.92C472.645 32.2827 473.082 32.464 473.68 32.464C474.245 32.464 474.709 32.2613 475.072 31.856C475.445 31.4507 475.632 30.8853 475.632 30.16V26.064H477.68V34H475.872L475.712 32.656C475.466 33.1253 475.109 33.4987 474.64 33.776C474.181 34.0533 473.642 34.192 473.024 34.192ZM479.782 34V26.064H481.59L481.766 27.136C482.022 26.752 482.358 26.448 482.774 26.224C483.201 25.9893 483.692 25.872 484.246 25.872C485.473 25.872 486.342 26.3467 486.854 27.296C487.142 26.8587 487.526 26.512 488.006 26.256C488.497 26 489.03 25.872 489.606 25.872C490.641 25.872 491.436 26.1813 491.99 26.8C492.545 27.4187 492.822 28.3253 492.822 29.52V34H490.774V29.712C490.774 29.0293 490.641 28.5067 490.374 28.144C490.118 27.7813 489.718 27.6 489.174 27.6C488.62 27.6 488.172 27.8027 487.83 28.208C487.5 28.6133 487.334 29.1787 487.334 29.904V34H485.286V29.712C485.286 29.0293 485.153 28.5067 484.886 28.144C484.62 27.7813 484.209 27.6 483.654 27.6C483.11 27.6 482.668 27.8027 482.326 28.208C481.996 28.6133 481.83 29.1787 481.83 29.904V34H479.782ZM498.623 34.192C497.823 34.192 497.113 34.0213 496.495 33.68C495.876 33.3387 495.391 32.8587 495.039 32.24C494.687 31.6213 494.511 30.9067 494.511 30.096C494.511 29.2747 494.681 28.544 495.023 27.904C495.375 27.264 495.855 26.768 496.463 26.416C497.081 26.0533 497.807 25.872 498.639 25.872C499.417 25.872 500.105 26.0427 500.703 26.384C501.3 26.7253 501.764 27.1947 502.095 27.792C502.436 28.3787 502.607 29.0347 502.607 29.76C502.607 29.8773 502.601 30 502.591 30.128C502.591 30.256 502.585 30.3893 502.575 30.528H496.543C496.585 31.1467 496.799 31.632 497.183 31.984C497.577 32.336 498.052 32.512 498.607 32.512C499.023 32.512 499.369 32.4213 499.647 32.24C499.935 32.048 500.148 31.8027 500.287 31.504H502.367C502.217 32.0053 501.967 32.464 501.615 32.88C501.273 33.2853 500.847 33.6053 500.335 33.84C499.833 34.0747 499.263 34.192 498.623 34.192ZM498.639 27.536C498.137 27.536 497.695 27.68 497.311 27.968C496.927 28.2453 496.681 28.672 496.575 29.248H500.527C500.495 28.7253 500.303 28.3093 499.951 28C499.599 27.6907 499.161 27.536 498.639 27.536ZM504.329 34V26.064H506.153L506.345 27.552C506.633 27.04 507.022 26.6347 507.513 26.336C508.014 26.0267 508.601 25.872 509.273 25.872V28.032H508.697C508.249 28.032 507.849 28.1013 507.497 28.24C507.145 28.3787 506.868 28.6187 506.665 28.96C506.473 29.3013 506.377 29.776 506.377 30.384V34H504.329Z" fill="black"/>
<rect x="214" y="4" width="95" height="48" rx="9" fill="white" stroke="#FF6501" stroke-width="2"/>
<path d="M228.041 34V22.8H230.473L234.041 29.904L237.561 22.8H239.993V34H237.945V26.272L234.825 32.4H233.209L230.089 26.272V34H228.041ZM245.974 34.192C245.174 34.192 244.465 34.0213 243.846 33.68C243.227 33.3387 242.742 32.8587 242.39 32.24C242.038 31.6213 241.862 30.9067 241.862 30.096C241.862 29.2747 242.033 28.544 242.374 27.904C242.726 27.264 243.206 26.768 243.814 26.416C244.433 26.0533 245.158 25.872 245.99 25.872C246.769 25.872 247.457 26.0427 248.054 26.384C248.651 26.7253 249.115 27.1947 249.446 27.792C249.787 28.3787 249.958 29.0347 249.958 29.76C249.958 29.8773 249.953 30 249.942 30.128C249.942 30.256 249.937 30.3893 249.926 30.528H243.894C243.937 31.1467 244.15 31.632 244.534 31.984C244.929 32.336 245.403 32.512 245.958 32.512C246.374 32.512 246.721 32.4213 246.998 32.24C247.286 32.048 247.499 31.8027 247.638 31.504H249.718C249.569 32.0053 249.318 32.464 248.966 32.88C248.625 33.2853 248.198 33.6053 247.686 33.84C247.185 34.0747 246.614 34.192 245.974 34.192ZM245.99 27.536C245.489 27.536 245.046 27.68 244.662 27.968C244.278 28.2453 244.033 28.672 243.926 29.248H247.878C247.846 28.7253 247.654 28.3093 247.302 28C246.95 27.6907 246.513 27.536 245.99 27.536ZM254.961 34.192C254.257 34.192 253.638 34.08 253.105 33.856C252.571 33.6213 252.145 33.3013 251.825 32.896C251.505 32.4907 251.313 32.0213 251.249 31.488H253.313C253.377 31.7973 253.547 32.064 253.825 32.288C254.113 32.5013 254.481 32.608 254.929 32.608C255.377 32.608 255.702 32.5173 255.905 32.336C256.118 32.1547 256.225 31.9467 256.225 31.712C256.225 31.3707 256.075 31.1413 255.777 31.024C255.478 30.896 255.062 30.7733 254.529 30.656C254.187 30.5813 253.841 30.4907 253.489 30.384C253.137 30.2773 252.811 30.144 252.513 29.984C252.225 29.8133 251.99 29.6 251.809 29.344C251.627 29.0773 251.537 28.752 251.537 28.368C251.537 27.664 251.814 27.072 252.369 26.592C252.934 26.112 253.723 25.872 254.737 25.872C255.675 25.872 256.422 26.0907 256.977 26.528C257.542 26.9653 257.878 27.568 257.985 28.336H256.049C255.931 27.7493 255.489 27.456 254.721 27.456C254.337 27.456 254.038 27.5307 253.825 27.68C253.622 27.8293 253.521 28.016 253.521 28.24C253.521 28.4747 253.675 28.6613 253.985 28.8C254.294 28.9387 254.705 29.0667 255.217 29.184C255.771 29.312 256.278 29.456 256.737 29.616C257.206 29.7653 257.579 29.9947 257.857 30.304C258.134 30.6027 258.273 31.0347 258.273 31.6C258.283 32.0907 258.155 32.5333 257.889 32.928C257.622 33.3227 257.238 33.632 256.737 33.856C256.235 34.08 255.643 34.192 254.961 34.192ZM263.367 34.192C262.663 34.192 262.044 34.08 261.511 33.856C260.978 33.6213 260.551 33.3013 260.231 32.896C259.911 32.4907 259.719 32.0213 259.655 31.488H261.719C261.783 31.7973 261.954 32.064 262.231 32.288C262.519 32.5013 262.887 32.608 263.335 32.608C263.783 32.608 264.108 32.5173 264.311 32.336C264.524 32.1547 264.631 31.9467 264.631 31.712C264.631 31.3707 264.482 31.1413 264.183 31.024C263.884 30.896 263.468 30.7733 262.935 30.656C262.594 30.5813 262.247 30.4907 261.895 30.384C261.543 30.2773 261.218 30.144 260.919 29.984C260.631 29.8133 260.396 29.6 260.215 29.344C260.034 29.0773 259.943 28.752 259.943 28.368C259.943 27.664 260.22 27.072 260.775 26.592C261.34 26.112 262.13 25.872 263.143 25.872C264.082 25.872 264.828 26.0907 265.383 26.528C265.948 26.9653 266.284 27.568 266.391 28.336H264.455C264.338 27.7493 263.895 27.456 263.127 27.456C262.743 27.456 262.444 27.5307 262.231 27.68C262.028 27.8293 261.927 28.016 261.927 28.24C261.927 28.4747 262.082 28.6613 262.391 28.8C262.7 28.9387 263.111 29.0667 263.623 29.184C264.178 29.312 264.684 29.456 265.143 29.616C265.612 29.7653 265.986 29.9947 266.263 30.304C266.54 30.6027 266.679 31.0347 266.679 31.6C266.69 32.0907 266.562 32.5333 266.295 32.928C266.028 33.3227 265.644 33.632 265.143 33.856C264.642 34.08 264.05 34.192 263.367 34.192ZM271.229 34.192C270.546 34.192 269.986 34.0853 269.549 33.872C269.112 33.648 268.786 33.3547 268.573 32.992C268.36 32.6293 268.253 32.2293 268.253 31.792C268.253 31.056 268.541 30.4587 269.117 30C269.693 29.5413 270.557 29.312 271.709 29.312H273.725V29.12C273.725 28.576 273.57 28.176 273.261 27.92C272.952 27.664 272.568 27.536 272.109 27.536C271.693 27.536 271.33 27.6373 271.021 27.84C270.712 28.032 270.52 28.32 270.445 28.704H268.445C268.498 28.128 268.69 27.6267 269.021 27.2C269.362 26.7733 269.8 26.448 270.333 26.224C270.866 25.9893 271.464 25.872 272.125 25.872C273.256 25.872 274.146 26.1547 274.797 26.72C275.448 27.2853 275.773 28.0853 275.773 29.12V34H274.029L273.837 32.72C273.602 33.1467 273.272 33.4987 272.845 33.776C272.429 34.0533 271.89 34.192 271.229 34.192ZM271.693 32.592C272.28 32.592 272.733 32.4 273.053 32.016C273.384 31.632 273.592 31.1573 273.677 30.592H271.933C271.389 30.592 271 30.6933 270.765 30.896C270.53 31.088 270.413 31.328 270.413 31.616C270.413 31.9253 270.53 32.1653 270.765 32.336C271 32.5067 271.309 32.592 271.693 32.592ZM281.088 31.632C280.704 31.632 280.346 31.5893 280.016 31.504L279.424 32.096C279.605 32.192 279.85 32.272 280.16 32.336C280.469 32.4 280.97 32.464 281.664 32.528C282.72 32.624 283.488 32.8747 283.968 33.28C284.448 33.6853 284.688 34.2453 284.688 34.96C284.688 35.4293 284.56 35.872 284.304 36.288C284.048 36.7147 283.653 37.056 283.12 37.312C282.586 37.5787 281.904 37.712 281.072 37.712C279.941 37.712 279.029 37.4987 278.336 37.072C277.642 36.656 277.296 36.0267 277.296 35.184C277.296 34.4693 277.642 33.8507 278.336 33.328C278.122 33.232 277.936 33.1307 277.776 33.024C277.626 32.9173 277.493 32.8053 277.376 32.688V32.32L278.768 30.848C278.149 30.304 277.84 29.6053 277.84 28.752C277.84 28.2187 277.968 27.7333 278.224 27.296C278.49 26.8587 278.864 26.512 279.344 26.256C279.824 26 280.405 25.872 281.088 25.872C281.536 25.872 281.952 25.936 282.336 26.064H285.344V27.312L283.984 27.408C284.197 27.8133 284.304 28.2613 284.304 28.752C284.304 29.2853 284.176 29.7707 283.92 30.208C283.664 30.6453 283.29 30.992 282.8 31.248C282.32 31.504 281.749 31.632 281.088 31.632ZM281.088 30.064C281.504 30.064 281.845 29.952 282.112 29.728C282.389 29.504 282.528 29.184 282.528 28.768C282.528 28.352 282.389 28.032 282.112 27.808C281.845 27.584 281.504 27.472 281.088 27.472C280.65 27.472 280.298 27.584 280.032 27.808C279.765 28.032 279.632 28.352 279.632 28.768C279.632 29.184 279.765 29.504 280.032 29.728C280.298 29.952 280.65 30.064 281.088 30.064ZM279.168 34.976C279.168 35.3707 279.349 35.664 279.712 35.856C280.085 36.0587 280.538 36.16 281.072 36.16C281.584 36.16 282 36.0533 282.32 35.84C282.64 35.6373 282.8 35.36 282.8 35.008C282.8 34.72 282.693 34.48 282.48 34.288C282.277 34.096 281.866 33.9787 281.248 33.936C280.81 33.904 280.405 33.856 280.032 33.792C279.722 33.9627 279.498 34.1493 279.36 34.352C279.232 34.5547 279.168 34.7627 279.168 34.976ZM290.38 34.192C289.58 34.192 288.871 34.0213 288.252 33.68C287.634 33.3387 287.148 32.8587 286.796 32.24C286.444 31.6213 286.268 30.9067 286.268 30.096C286.268 29.2747 286.439 28.544 286.78 27.904C287.132 27.264 287.612 26.768 288.22 26.416C288.839 26.0533 289.564 25.872 290.396 25.872C291.175 25.872 291.863 26.0427 292.46 26.384C293.058 26.7253 293.522 27.1947 293.852 27.792C294.194 28.3787 294.364 29.0347 294.364 29.76C294.364 29.8773 294.359 30 294.348 30.128C294.348 30.256 294.343 30.3893 294.332 30.528H288.3C288.343 31.1467 288.556 31.632 288.94 31.984C289.335 32.336 289.81 32.512 290.364 32.512C290.78 32.512 291.127 32.4213 291.404 32.24C291.692 32.048 291.906 31.8027 292.044 31.504H294.124C293.975 32.0053 293.724 32.464 293.372 32.88C293.031 33.2853 292.604 33.6053 292.092 33.84C291.591 34.0747 291.02 34.192 290.38 34.192ZM290.396 27.536C289.895 27.536 289.452 27.68 289.068 27.968C288.684 28.2453 288.439 28.672 288.332 29.248H292.284C292.252 28.7253 292.06 28.3093 291.708 28C291.356 27.6907 290.919 27.536 290.396 27.536Z" fill="black"/>
</svg>
