<svg width="541" height="221" viewBox="0 0 541 221" fill="none" xmlns="http://www.w3.org/2000/svg">
<path d="M146.489 107C144.556 107.004 142.992 108.574 142.996 110.507C143 112.44 144.57 114.004 146.503 114L146.489 107ZM398 109.988L362.959 89.8518L363.041 130.266L398 109.988ZM146.503 114L366.507 113.552L366.493 106.552L146.489 107L146.503 114Z" fill="#FF6501"/>
<rect x="7" y="82" width="128" height="55" rx="9" stroke="#FF6501" stroke-width="2"/>
<path d="M36.4161 115V103.8H40.5601C41.4561 103.8 42.1975 103.949 42.7841 104.248C43.3708 104.547 43.8081 104.957 44.0961 105.48C44.3841 106.003 44.5281 106.589 44.5281 107.24C44.5281 107.859 44.3895 108.429 44.1121 108.952C43.8348 109.464 43.4028 109.88 42.8161 110.2C42.2295 110.509 41.4775 110.664 40.5601 110.664H38.4641V115H36.4161ZM38.4641 109H40.4321C41.1468 109 41.6588 108.845 41.9681 108.536C42.2881 108.216 42.4481 107.784 42.4481 107.24C42.4481 106.685 42.2881 106.253 41.9681 105.944C41.6588 105.624 41.1468 105.464 40.4321 105.464H38.4641V109ZM49.0629 115.192C48.0709 115.192 47.3029 114.883 46.7589 114.264C46.2255 113.645 45.9589 112.739 45.9589 111.544V107.064H47.9909V111.352C47.9909 112.035 48.1295 112.557 48.4069 112.92C48.6842 113.283 49.1215 113.464 49.7189 113.464C50.2842 113.464 50.7482 113.261 51.1109 112.856C51.4842 112.451 51.6709 111.885 51.6709 111.16V107.064H53.7189V115H51.9109L51.7509 113.656C51.5055 114.125 51.1482 114.499 50.6789 114.776C50.2202 115.053 49.6815 115.192 49.0629 115.192ZM60.5253 115.192C59.9279 115.192 59.4053 115.08 58.9573 114.856C58.5093 114.632 58.1466 114.317 57.8693 113.912L57.6453 115H55.8213V103.48H57.8693V108.2C58.1253 107.848 58.4613 107.539 58.8773 107.272C59.3039 107.005 59.8533 106.872 60.5253 106.872C61.2719 106.872 61.9386 107.053 62.5253 107.416C63.1119 107.779 63.5759 108.275 63.9173 108.904C64.2586 109.533 64.4293 110.248 64.4293 111.048C64.4293 111.848 64.2586 112.563 63.9173 113.192C63.5759 113.811 63.1119 114.301 62.5253 114.664C61.9386 115.016 61.2719 115.192 60.5253 115.192ZM60.0933 113.4C60.7439 113.4 61.2826 113.181 61.7093 112.744C62.1359 112.307 62.3493 111.741 62.3493 111.048C62.3493 110.355 62.1359 109.784 61.7093 109.336C61.2826 108.888 60.7439 108.664 60.0933 108.664C59.4319 108.664 58.8879 108.888 58.4613 109.336C58.0453 109.773 57.8373 110.339 57.8373 111.032C57.8373 111.725 58.0453 112.296 58.4613 112.744C58.8879 113.181 59.4319 113.4 60.0933 113.4ZM66.2588 115V103.48H68.3068V115H66.2588ZM71.5034 105.832C71.13 105.832 70.8207 105.72 70.5754 105.496C70.3407 105.272 70.2234 104.989 70.2234 104.648C70.2234 104.307 70.3407 104.029 70.5754 103.816C70.8207 103.592 71.13 103.48 71.5034 103.48C71.8767 103.48 72.1807 103.592 72.4154 103.816C72.6607 104.029 72.7834 104.307 72.7834 104.648C72.7834 104.989 72.6607 105.272 72.4154 105.496C72.1807 105.72 71.8767 105.832 71.5034 105.832ZM70.4794 115V107.064H72.5274V115H70.4794ZM77.945 115.192C77.241 115.192 76.6223 115.08 76.089 114.856C75.5557 114.621 75.129 114.301 74.809 113.896C74.489 113.491 74.297 113.021 74.233 112.488H76.297C76.361 112.797 76.5317 113.064 76.809 113.288C77.097 113.501 77.465 113.608 77.913 113.608C78.361 113.608 78.6863 113.517 78.889 113.336C79.1023 113.155 79.209 112.947 79.209 112.712C79.209 112.371 79.0597 112.141 78.761 112.024C78.4623 111.896 78.0463 111.773 77.513 111.656C77.1717 111.581 76.825 111.491 76.473 111.384C76.121 111.277 75.7957 111.144 75.497 110.984C75.209 110.813 74.9743 110.6 74.793 110.344C74.6117 110.077 74.521 109.752 74.521 109.368C74.521 108.664 74.7983 108.072 75.353 107.592C75.9183 107.112 76.7077 106.872 77.721 106.872C78.6597 106.872 79.4063 107.091 79.961 107.528C80.5263 107.965 80.8623 108.568 80.969 109.336H79.033C78.9157 108.749 78.473 108.456 77.705 108.456C77.321 108.456 77.0223 108.531 76.809 108.68C76.6063 108.829 76.505 109.016 76.505 109.24C76.505 109.475 76.6597 109.661 76.969 109.8C77.2783 109.939 77.689 110.067 78.201 110.184C78.7557 110.312 79.2623 110.456 79.721 110.616C80.1903 110.765 80.5637 110.995 80.841 111.304C81.1183 111.603 81.257 112.035 81.257 112.6C81.2677 113.091 81.1397 113.533 80.873 113.928C80.6063 114.323 80.2223 114.632 79.721 114.856C79.2197 115.08 78.6277 115.192 77.945 115.192ZM83.0713 115V103.48H85.1193V108.28C85.3859 107.843 85.7433 107.501 86.1913 107.256C86.6499 107 87.1726 106.872 87.7593 106.872C88.7406 106.872 89.4979 107.181 90.0312 107.8C90.5752 108.419 90.8472 109.325 90.8472 110.52V115H88.8153V110.712C88.8153 110.029 88.6766 109.507 88.3993 109.144C88.1326 108.781 87.7059 108.6 87.1193 108.6C86.5433 108.6 86.0633 108.803 85.6793 109.208C85.3059 109.613 85.1193 110.179 85.1193 110.904V115H83.0713ZM96.6616 115.192C95.8616 115.192 95.1523 115.021 94.5336 114.68C93.915 114.339 93.4296 113.859 93.0776 113.24C92.7256 112.621 92.5496 111.907 92.5496 111.096C92.5496 110.275 92.7203 109.544 93.0616 108.904C93.4136 108.264 93.8936 107.768 94.5016 107.416C95.1203 107.053 95.8456 106.872 96.6776 106.872C97.4563 106.872 98.1443 107.043 98.7416 107.384C99.339 107.725 99.803 108.195 100.134 108.792C100.475 109.379 100.646 110.035 100.646 110.76C100.646 110.877 100.64 111 100.63 111.128C100.63 111.256 100.624 111.389 100.614 111.528H94.5816C94.6243 112.147 94.8376 112.632 95.2216 112.984C95.6163 113.336 96.091 113.512 96.6456 113.512C97.0616 113.512 97.4083 113.421 97.6856 113.24C97.9736 113.048 98.187 112.803 98.3256 112.504H100.406C100.256 113.005 100.006 113.464 99.6536 113.88C99.3123 114.285 98.8856 114.605 98.3736 114.84C97.8723 115.075 97.3016 115.192 96.6616 115.192ZM96.6776 108.536C96.1763 108.536 95.7336 108.68 95.3496 108.968C94.9656 109.245 94.7203 109.672 94.6136 110.248H98.5656C98.5336 109.725 98.3416 109.309 97.9896 109C97.6376 108.691 97.2003 108.536 96.6776 108.536ZM102.368 115V107.064H104.192L104.384 108.552C104.672 108.04 105.061 107.635 105.552 107.336C106.053 107.027 106.64 106.872 107.312 106.872V109.032H106.736C106.288 109.032 105.888 109.101 105.536 109.24C105.184 109.379 104.907 109.619 104.704 109.96C104.512 110.301 104.416 110.776 104.416 111.384V115H102.368Z" fill="black"/>
<rect x="405" y="1" width="128" height="55" rx="9" stroke="#FF6501" stroke-width="2"/>
<path d="M432.076 33.192C431.255 33.192 430.529 33.0533 429.9 32.776C429.271 32.488 428.775 32.0827 428.412 31.56C428.049 31.0267 427.863 30.3813 427.852 29.624H430.012C430.033 30.1467 430.22 30.5893 430.572 30.952C430.935 31.304 431.431 31.48 432.06 31.48C432.604 31.48 433.036 31.352 433.356 31.096C433.676 30.8293 433.836 30.4773 433.836 30.04C433.836 29.5813 433.692 29.224 433.404 28.968C433.127 28.712 432.753 28.504 432.284 28.344C431.815 28.184 431.313 28.0133 430.78 27.832C429.916 27.5333 429.255 27.1493 428.796 26.68C428.348 26.2107 428.124 25.5867 428.124 24.808C428.113 24.1467 428.268 23.5813 428.588 23.112C428.919 22.632 429.367 22.264 429.932 22.008C430.497 21.7413 431.148 21.608 431.884 21.608C432.631 21.608 433.287 21.7413 433.852 22.008C434.428 22.2747 434.876 22.648 435.196 23.128C435.527 23.608 435.703 24.1787 435.724 24.84H433.532C433.521 24.4453 433.367 24.0987 433.068 23.8C432.78 23.4907 432.375 23.336 431.852 23.336C431.404 23.3253 431.025 23.4373 430.716 23.672C430.417 23.896 430.268 24.2267 430.268 24.664C430.268 25.0373 430.385 25.336 430.62 25.56C430.855 25.7733 431.175 25.9547 431.58 26.104C431.985 26.2533 432.449 26.4133 432.972 26.584C433.527 26.776 434.033 27 434.492 27.256C434.951 27.512 435.319 27.8533 435.596 28.28C435.873 28.696 436.012 29.2347 436.012 29.896C436.012 30.4827 435.863 31.0267 435.564 31.528C435.265 32.0293 434.823 32.4347 434.236 32.744C433.649 33.0427 432.929 33.192 432.076 33.192ZM440.727 33.192C439.735 33.192 438.967 32.8827 438.423 32.264C437.89 31.6453 437.623 30.7387 437.623 29.544V25.064H439.655V29.352C439.655 30.0347 439.794 30.5573 440.071 30.92C440.348 31.2827 440.786 31.464 441.383 31.464C441.948 31.464 442.412 31.2613 442.775 30.856C443.148 30.4507 443.335 29.8853 443.335 29.16V25.064H445.383V33H443.575L443.415 31.656C443.17 32.1253 442.812 32.4987 442.343 32.776C441.884 33.0533 441.346 33.192 440.727 33.192ZM452.189 33.192C451.592 33.192 451.069 33.08 450.621 32.856C450.173 32.632 449.811 32.3173 449.533 31.912L449.309 33H447.485V21.48H449.533V26.2C449.789 25.848 450.125 25.5387 450.541 25.272C450.968 25.0053 451.517 24.872 452.189 24.872C452.936 24.872 453.603 25.0533 454.189 25.416C454.776 25.7787 455.24 26.2747 455.581 26.904C455.923 27.5333 456.093 28.248 456.093 29.048C456.093 29.848 455.923 30.5627 455.581 31.192C455.24 31.8107 454.776 32.3013 454.189 32.664C453.603 33.016 452.936 33.192 452.189 33.192ZM451.757 31.4C452.408 31.4 452.947 31.1813 453.373 30.744C453.8 30.3067 454.013 29.7413 454.013 29.048C454.013 28.3547 453.8 27.784 453.373 27.336C452.947 26.888 452.408 26.664 451.757 26.664C451.096 26.664 450.552 26.888 450.125 27.336C449.709 27.7733 449.501 28.3387 449.501 29.032C449.501 29.7253 449.709 30.296 450.125 30.744C450.552 31.1813 451.096 31.4 451.757 31.4ZM461.203 33.192C460.499 33.192 459.88 33.08 459.347 32.856C458.813 32.6213 458.387 32.3013 458.067 31.896C457.747 31.4907 457.555 31.0213 457.491 30.488H459.555C459.619 30.7973 459.789 31.064 460.067 31.288C460.355 31.5013 460.723 31.608 461.171 31.608C461.619 31.608 461.944 31.5173 462.147 31.336C462.36 31.1547 462.467 30.9467 462.467 30.712C462.467 30.3707 462.317 30.1413 462.019 30.024C461.72 29.896 461.304 29.7733 460.771 29.656C460.429 29.5813 460.083 29.4907 459.731 29.384C459.379 29.2773 459.053 29.144 458.755 28.984C458.467 28.8133 458.232 28.6 458.051 28.344C457.869 28.0773 457.779 27.752 457.779 27.368C457.779 26.664 458.056 26.072 458.611 25.592C459.176 25.112 459.965 24.872 460.979 24.872C461.917 24.872 462.664 25.0907 463.219 25.528C463.784 25.9653 464.12 26.568 464.227 27.336H462.291C462.173 26.7493 461.731 26.456 460.963 26.456C460.579 26.456 460.28 26.5307 460.067 26.68C459.864 26.8293 459.763 27.016 459.763 27.24C459.763 27.4747 459.917 27.6613 460.227 27.8C460.536 27.9387 460.947 28.0667 461.459 28.184C462.013 28.312 462.52 28.456 462.979 28.616C463.448 28.7653 463.821 28.9947 464.099 29.304C464.376 29.6027 464.515 30.0347 464.515 30.6C464.525 31.0907 464.397 31.5333 464.131 31.928C463.864 32.3227 463.48 32.632 462.979 32.856C462.477 33.08 461.885 33.192 461.203 33.192ZM470.217 33.192C469.406 33.192 468.692 33.016 468.073 32.664C467.454 32.312 466.964 31.8213 466.601 31.192C466.249 30.5627 466.073 29.8427 466.073 29.032C466.073 28.2213 466.249 27.5013 466.601 26.872C466.964 26.2427 467.454 25.752 468.073 25.4C468.692 25.048 469.406 24.872 470.217 24.872C471.23 24.872 472.084 25.1387 472.777 25.672C473.47 26.1947 473.913 26.92 474.105 27.848H471.945C471.838 27.464 471.625 27.1653 471.305 26.952C470.996 26.728 470.628 26.616 470.201 26.616C469.636 26.616 469.156 26.8293 468.761 27.256C468.366 27.6827 468.169 28.2747 468.169 29.032C468.169 29.7893 468.366 30.3813 468.761 30.808C469.156 31.2347 469.636 31.448 470.201 31.448C470.628 31.448 470.996 31.3413 471.305 31.128C471.625 30.9147 471.838 30.6107 471.945 30.216H474.105C473.913 31.112 473.47 31.832 472.777 32.376C472.084 32.92 471.23 33.192 470.217 33.192ZM475.923 33V25.064H477.747L477.939 26.552C478.227 26.04 478.616 25.6347 479.107 25.336C479.608 25.0267 480.195 24.872 480.867 24.872V27.032H480.291C479.843 27.032 479.443 27.1013 479.091 27.24C478.739 27.3787 478.461 27.6187 478.259 27.96C478.067 28.3013 477.971 28.776 477.971 29.384V33H475.923ZM483.371 23.832C482.997 23.832 482.688 23.72 482.443 23.496C482.208 23.272 482.091 22.9893 482.091 22.648C482.091 22.3067 482.208 22.0293 482.443 21.816C482.688 21.592 482.997 21.48 483.371 21.48C483.744 21.48 484.048 21.592 484.283 21.816C484.528 22.0293 484.651 22.3067 484.651 22.648C484.651 22.9893 484.528 23.272 484.283 23.496C484.048 23.72 483.744 23.832 483.371 23.832ZM482.347 33V25.064H484.395V33H482.347ZM491.236 33.192C490.639 33.192 490.116 33.08 489.668 32.856C489.22 32.632 488.858 32.3173 488.58 31.912L488.356 33H486.532V21.48H488.58V26.2C488.836 25.848 489.172 25.5387 489.588 25.272C490.015 25.0053 490.564 24.872 491.236 24.872C491.983 24.872 492.65 25.0533 493.236 25.416C493.823 25.7787 494.287 26.2747 494.628 26.904C494.97 27.5333 495.14 28.248 495.14 29.048C495.14 29.848 494.97 30.5627 494.628 31.192C494.287 31.8107 493.823 32.3013 493.236 32.664C492.65 33.016 491.983 33.192 491.236 33.192ZM490.804 31.4C491.455 31.4 491.994 31.1813 492.42 30.744C492.847 30.3067 493.06 29.7413 493.06 29.048C493.06 28.3547 492.847 27.784 492.42 27.336C491.994 26.888 491.455 26.664 490.804 26.664C490.143 26.664 489.599 26.888 489.172 27.336C488.756 27.7733 488.548 28.3387 488.548 29.032C488.548 29.7253 488.756 30.296 489.172 30.744C489.599 31.1813 490.143 31.4 490.804 31.4ZM500.826 33.192C500.026 33.192 499.316 33.0213 498.698 32.68C498.079 32.3387 497.594 31.8587 497.242 31.24C496.89 30.6213 496.714 29.9067 496.714 29.096C496.714 28.2747 496.884 27.544 497.226 26.904C497.578 26.264 498.058 25.768 498.666 25.416C499.284 25.0533 500.01 24.872 500.842 24.872C501.62 24.872 502.308 25.0427 502.906 25.384C503.503 25.7253 503.967 26.1947 504.298 26.792C504.639 27.3787 504.81 28.0347 504.81 28.76C504.81 28.8773 504.804 29 504.794 29.128C504.794 29.256 504.788 29.3893 504.778 29.528H498.746C498.788 30.1467 499.002 30.632 499.386 30.984C499.78 31.336 500.255 31.512 500.81 31.512C501.226 31.512 501.572 31.4213 501.85 31.24C502.138 31.048 502.351 30.8027 502.49 30.504H504.57C504.42 31.0053 504.17 31.464 503.818 31.88C503.476 32.2853 503.05 32.6053 502.538 32.84C502.036 33.0747 501.466 33.192 500.826 33.192ZM500.842 26.536C500.34 26.536 499.898 26.68 499.514 26.968C499.13 27.2453 498.884 27.672 498.778 28.248H502.73C502.698 27.7253 502.506 27.3093 502.154 27C501.802 26.6907 501.364 26.536 500.842 26.536ZM506.532 33V25.064H508.356L508.548 26.552C508.836 26.04 509.226 25.6347 509.716 25.336C510.218 25.0267 510.804 24.872 511.476 24.872V27.032H510.9C510.452 27.032 510.052 27.1013 509.7 27.24C509.348 27.3787 509.071 27.6187 508.868 27.96C508.676 28.3013 508.58 28.776 508.58 29.384V33H506.532Z" fill="black"/>
<rect x="405" y="83" width="128" height="55" rx="9" stroke="#FF6501" stroke-width="2"/>
<path d="M432.076 115.192C431.255 115.192 430.529 115.053 429.9 114.776C429.271 114.488 428.775 114.083 428.412 113.56C428.049 113.027 427.863 112.381 427.852 111.624H430.012C430.033 112.147 430.22 112.589 430.572 112.952C430.935 113.304 431.431 113.48 432.06 113.48C432.604 113.48 433.036 113.352 433.356 113.096C433.676 112.829 433.836 112.477 433.836 112.04C433.836 111.581 433.692 111.224 433.404 110.968C433.127 110.712 432.753 110.504 432.284 110.344C431.815 110.184 431.313 110.013 430.78 109.832C429.916 109.533 429.255 109.149 428.796 108.68C428.348 108.211 428.124 107.587 428.124 106.808C428.113 106.147 428.268 105.581 428.588 105.112C428.919 104.632 429.367 104.264 429.932 104.008C430.497 103.741 431.148 103.608 431.884 103.608C432.631 103.608 433.287 103.741 433.852 104.008C434.428 104.275 434.876 104.648 435.196 105.128C435.527 105.608 435.703 106.179 435.724 106.84H433.532C433.521 106.445 433.367 106.099 433.068 105.8C432.78 105.491 432.375 105.336 431.852 105.336C431.404 105.325 431.025 105.437 430.716 105.672C430.417 105.896 430.268 106.227 430.268 106.664C430.268 107.037 430.385 107.336 430.62 107.56C430.855 107.773 431.175 107.955 431.58 108.104C431.985 108.253 432.449 108.413 432.972 108.584C433.527 108.776 434.033 109 434.492 109.256C434.951 109.512 435.319 109.853 435.596 110.28C435.873 110.696 436.012 111.235 436.012 111.896C436.012 112.483 435.863 113.027 435.564 113.528C435.265 114.029 434.823 114.435 434.236 114.744C433.649 115.043 432.929 115.192 432.076 115.192ZM440.727 115.192C439.735 115.192 438.967 114.883 438.423 114.264C437.89 113.645 437.623 112.739 437.623 111.544V107.064H439.655V111.352C439.655 112.035 439.794 112.557 440.071 112.92C440.348 113.283 440.786 113.464 441.383 113.464C441.948 113.464 442.412 113.261 442.775 112.856C443.148 112.451 443.335 111.885 443.335 111.16V107.064H445.383V115H443.575L443.415 113.656C443.17 114.125 442.812 114.499 442.343 114.776C441.884 115.053 441.346 115.192 440.727 115.192ZM452.189 115.192C451.592 115.192 451.069 115.08 450.621 114.856C450.173 114.632 449.811 114.317 449.533 113.912L449.309 115H447.485V103.48H449.533V108.2C449.789 107.848 450.125 107.539 450.541 107.272C450.968 107.005 451.517 106.872 452.189 106.872C452.936 106.872 453.603 107.053 454.189 107.416C454.776 107.779 455.24 108.275 455.581 108.904C455.923 109.533 456.093 110.248 456.093 111.048C456.093 111.848 455.923 112.563 455.581 113.192C455.24 113.811 454.776 114.301 454.189 114.664C453.603 115.016 452.936 115.192 452.189 115.192ZM451.757 113.4C452.408 113.4 452.947 113.181 453.373 112.744C453.8 112.307 454.013 111.741 454.013 111.048C454.013 110.355 453.8 109.784 453.373 109.336C452.947 108.888 452.408 108.664 451.757 108.664C451.096 108.664 450.552 108.888 450.125 109.336C449.709 109.773 449.501 110.339 449.501 111.032C449.501 111.725 449.709 112.296 450.125 112.744C450.552 113.181 451.096 113.4 451.757 113.4ZM461.203 115.192C460.499 115.192 459.88 115.08 459.347 114.856C458.813 114.621 458.387 114.301 458.067 113.896C457.747 113.491 457.555 113.021 457.491 112.488H459.555C459.619 112.797 459.789 113.064 460.067 113.288C460.355 113.501 460.723 113.608 461.171 113.608C461.619 113.608 461.944 113.517 462.147 113.336C462.36 113.155 462.467 112.947 462.467 112.712C462.467 112.371 462.317 112.141 462.019 112.024C461.72 111.896 461.304 111.773 460.771 111.656C460.429 111.581 460.083 111.491 459.731 111.384C459.379 111.277 459.053 111.144 458.755 110.984C458.467 110.813 458.232 110.6 458.051 110.344C457.869 110.077 457.779 109.752 457.779 109.368C457.779 108.664 458.056 108.072 458.611 107.592C459.176 107.112 459.965 106.872 460.979 106.872C461.917 106.872 462.664 107.091 463.219 107.528C463.784 107.965 464.12 108.568 464.227 109.336H462.291C462.173 108.749 461.731 108.456 460.963 108.456C460.579 108.456 460.28 108.531 460.067 108.68C459.864 108.829 459.763 109.016 459.763 109.24C459.763 109.475 459.917 109.661 460.227 109.8C460.536 109.939 460.947 110.067 461.459 110.184C462.013 110.312 462.52 110.456 462.979 110.616C463.448 110.765 463.821 110.995 464.099 111.304C464.376 111.603 464.515 112.035 464.515 112.6C464.525 113.091 464.397 113.533 464.131 113.928C463.864 114.323 463.48 114.632 462.979 114.856C462.477 115.08 461.885 115.192 461.203 115.192ZM470.217 115.192C469.406 115.192 468.692 115.016 468.073 114.664C467.454 114.312 466.964 113.821 466.601 113.192C466.249 112.563 466.073 111.843 466.073 111.032C466.073 110.221 466.249 109.501 466.601 108.872C466.964 108.243 467.454 107.752 468.073 107.4C468.692 107.048 469.406 106.872 470.217 106.872C471.23 106.872 472.084 107.139 472.777 107.672C473.47 108.195 473.913 108.92 474.105 109.848H471.945C471.838 109.464 471.625 109.165 471.305 108.952C470.996 108.728 470.628 108.616 470.201 108.616C469.636 108.616 469.156 108.829 468.761 109.256C468.366 109.683 468.169 110.275 468.169 111.032C468.169 111.789 468.366 112.381 468.761 112.808C469.156 113.235 469.636 113.448 470.201 113.448C470.628 113.448 470.996 113.341 471.305 113.128C471.625 112.915 471.838 112.611 471.945 112.216H474.105C473.913 113.112 473.47 113.832 472.777 114.376C472.084 114.92 471.23 115.192 470.217 115.192ZM475.923 115V107.064H477.747L477.939 108.552C478.227 108.04 478.616 107.635 479.107 107.336C479.608 107.027 480.195 106.872 480.867 106.872V109.032H480.291C479.843 109.032 479.443 109.101 479.091 109.24C478.739 109.379 478.461 109.619 478.259 109.96C478.067 110.301 477.971 110.776 477.971 111.384V115H475.923ZM483.371 105.832C482.997 105.832 482.688 105.72 482.443 105.496C482.208 105.272 482.091 104.989 482.091 104.648C482.091 104.307 482.208 104.029 482.443 103.816C482.688 103.592 482.997 103.48 483.371 103.48C483.744 103.48 484.048 103.592 484.283 103.816C484.528 104.029 484.651 104.307 484.651 104.648C484.651 104.989 484.528 105.272 484.283 105.496C484.048 105.72 483.744 105.832 483.371 105.832ZM482.347 115V107.064H484.395V115H482.347ZM491.236 115.192C490.639 115.192 490.116 115.08 489.668 114.856C489.22 114.632 488.858 114.317 488.58 113.912L488.356 115H486.532V103.48H488.58V108.2C488.836 107.848 489.172 107.539 489.588 107.272C490.015 107.005 490.564 106.872 491.236 106.872C491.983 106.872 492.65 107.053 493.236 107.416C493.823 107.779 494.287 108.275 494.628 108.904C494.97 109.533 495.14 110.248 495.14 111.048C495.14 111.848 494.97 112.563 494.628 113.192C494.287 113.811 493.823 114.301 493.236 114.664C492.65 115.016 491.983 115.192 491.236 115.192ZM490.804 113.4C491.455 113.4 491.994 113.181 492.42 112.744C492.847 112.307 493.06 111.741 493.06 111.048C493.06 110.355 492.847 109.784 492.42 109.336C491.994 108.888 491.455 108.664 490.804 108.664C490.143 108.664 489.599 108.888 489.172 109.336C488.756 109.773 488.548 110.339 488.548 111.032C488.548 111.725 488.756 112.296 489.172 112.744C489.599 113.181 490.143 113.4 490.804 113.4ZM500.826 115.192C500.026 115.192 499.316 115.021 498.698 114.68C498.079 114.339 497.594 113.859 497.242 113.24C496.89 112.621 496.714 111.907 496.714 111.096C496.714 110.275 496.884 109.544 497.226 108.904C497.578 108.264 498.058 107.768 498.666 107.416C499.284 107.053 500.01 106.872 500.842 106.872C501.62 106.872 502.308 107.043 502.906 107.384C503.503 107.725 503.967 108.195 504.298 108.792C504.639 109.379 504.81 110.035 504.81 110.76C504.81 110.877 504.804 111 504.794 111.128C504.794 111.256 504.788 111.389 504.778 111.528H498.746C498.788 112.147 499.002 112.632 499.386 112.984C499.78 113.336 500.255 113.512 500.81 113.512C501.226 113.512 501.572 113.421 501.85 113.24C502.138 113.048 502.351 112.803 502.49 112.504H504.57C504.42 113.005 504.17 113.464 503.818 113.88C503.476 114.285 503.05 114.605 502.538 114.84C502.036 115.075 501.466 115.192 500.826 115.192ZM500.842 108.536C500.34 108.536 499.898 108.68 499.514 108.968C499.13 109.245 498.884 109.672 498.778 110.248H502.73C502.698 109.725 502.506 109.309 502.154 109C501.802 108.691 501.364 108.536 500.842 108.536ZM506.532 115V107.064H508.356L508.548 108.552C508.836 108.04 509.226 107.635 509.716 107.336C510.218 107.027 510.804 106.872 511.476 106.872V109.032H510.9C510.452 109.032 510.052 109.101 509.7 109.24C509.348 109.379 509.071 109.619 508.868 109.96C508.676 110.301 508.58 110.776 508.58 111.384V115H506.532Z" fill="black"/>
<rect x="405" y="165" width="128" height="55" rx="9" stroke="#FF6501" stroke-width="2"/>
<path d="M432.076 197.192C431.255 197.192 430.529 197.053 429.9 196.776C429.271 196.488 428.775 196.083 428.412 195.56C428.049 195.027 427.863 194.381 427.852 193.624H430.012C430.033 194.147 430.22 194.589 430.572 194.952C430.935 195.304 431.431 195.48 432.06 195.48C432.604 195.48 433.036 195.352 433.356 195.096C433.676 194.829 433.836 194.477 433.836 194.04C433.836 193.581 433.692 193.224 433.404 192.968C433.127 192.712 432.753 192.504 432.284 192.344C431.815 192.184 431.313 192.013 430.78 191.832C429.916 191.533 429.255 191.149 428.796 190.68C428.348 190.211 428.124 189.587 428.124 188.808C428.113 188.147 428.268 187.581 428.588 187.112C428.919 186.632 429.367 186.264 429.932 186.008C430.497 185.741 431.148 185.608 431.884 185.608C432.631 185.608 433.287 185.741 433.852 186.008C434.428 186.275 434.876 186.648 435.196 187.128C435.527 187.608 435.703 188.179 435.724 188.84H433.532C433.521 188.445 433.367 188.099 433.068 187.8C432.78 187.491 432.375 187.336 431.852 187.336C431.404 187.325 431.025 187.437 430.716 187.672C430.417 187.896 430.268 188.227 430.268 188.664C430.268 189.037 430.385 189.336 430.62 189.56C430.855 189.773 431.175 189.955 431.58 190.104C431.985 190.253 432.449 190.413 432.972 190.584C433.527 190.776 434.033 191 434.492 191.256C434.951 191.512 435.319 191.853 435.596 192.28C435.873 192.696 436.012 193.235 436.012 193.896C436.012 194.483 435.863 195.027 435.564 195.528C435.265 196.029 434.823 196.435 434.236 196.744C433.649 197.043 432.929 197.192 432.076 197.192ZM440.727 197.192C439.735 197.192 438.967 196.883 438.423 196.264C437.89 195.645 437.623 194.739 437.623 193.544V189.064H439.655V193.352C439.655 194.035 439.794 194.557 440.071 194.92C440.348 195.283 440.786 195.464 441.383 195.464C441.948 195.464 442.412 195.261 442.775 194.856C443.148 194.451 443.335 193.885 443.335 193.16V189.064H445.383V197H443.575L443.415 195.656C443.17 196.125 442.812 196.499 442.343 196.776C441.884 197.053 441.346 197.192 440.727 197.192ZM452.189 197.192C451.592 197.192 451.069 197.08 450.621 196.856C450.173 196.632 449.811 196.317 449.533 195.912L449.309 197H447.485V185.48H449.533V190.2C449.789 189.848 450.125 189.539 450.541 189.272C450.968 189.005 451.517 188.872 452.189 188.872C452.936 188.872 453.603 189.053 454.189 189.416C454.776 189.779 455.24 190.275 455.581 190.904C455.923 191.533 456.093 192.248 456.093 193.048C456.093 193.848 455.923 194.563 455.581 195.192C455.24 195.811 454.776 196.301 454.189 196.664C453.603 197.016 452.936 197.192 452.189 197.192ZM451.757 195.4C452.408 195.4 452.947 195.181 453.373 194.744C453.8 194.307 454.013 193.741 454.013 193.048C454.013 192.355 453.8 191.784 453.373 191.336C452.947 190.888 452.408 190.664 451.757 190.664C451.096 190.664 450.552 190.888 450.125 191.336C449.709 191.773 449.501 192.339 449.501 193.032C449.501 193.725 449.709 194.296 450.125 194.744C450.552 195.181 451.096 195.4 451.757 195.4ZM461.203 197.192C460.499 197.192 459.88 197.08 459.347 196.856C458.813 196.621 458.387 196.301 458.067 195.896C457.747 195.491 457.555 195.021 457.491 194.488H459.555C459.619 194.797 459.789 195.064 460.067 195.288C460.355 195.501 460.723 195.608 461.171 195.608C461.619 195.608 461.944 195.517 462.147 195.336C462.36 195.155 462.467 194.947 462.467 194.712C462.467 194.371 462.317 194.141 462.019 194.024C461.72 193.896 461.304 193.773 460.771 193.656C460.429 193.581 460.083 193.491 459.731 193.384C459.379 193.277 459.053 193.144 458.755 192.984C458.467 192.813 458.232 192.6 458.051 192.344C457.869 192.077 457.779 191.752 457.779 191.368C457.779 190.664 458.056 190.072 458.611 189.592C459.176 189.112 459.965 188.872 460.979 188.872C461.917 188.872 462.664 189.091 463.219 189.528C463.784 189.965 464.12 190.568 464.227 191.336H462.291C462.173 190.749 461.731 190.456 460.963 190.456C460.579 190.456 460.28 190.531 460.067 190.68C459.864 190.829 459.763 191.016 459.763 191.24C459.763 191.475 459.917 191.661 460.227 191.8C460.536 191.939 460.947 192.067 461.459 192.184C462.013 192.312 462.52 192.456 462.979 192.616C463.448 192.765 463.821 192.995 464.099 193.304C464.376 193.603 464.515 194.035 464.515 194.6C464.525 195.091 464.397 195.533 464.131 195.928C463.864 196.323 463.48 196.632 462.979 196.856C462.477 197.08 461.885 197.192 461.203 197.192ZM470.217 197.192C469.406 197.192 468.692 197.016 468.073 196.664C467.454 196.312 466.964 195.821 466.601 195.192C466.249 194.563 466.073 193.843 466.073 193.032C466.073 192.221 466.249 191.501 466.601 190.872C466.964 190.243 467.454 189.752 468.073 189.4C468.692 189.048 469.406 188.872 470.217 188.872C471.23 188.872 472.084 189.139 472.777 189.672C473.47 190.195 473.913 190.92 474.105 191.848H471.945C471.838 191.464 471.625 191.165 471.305 190.952C470.996 190.728 470.628 190.616 470.201 190.616C469.636 190.616 469.156 190.829 468.761 191.256C468.366 191.683 468.169 192.275 468.169 193.032C468.169 193.789 468.366 194.381 468.761 194.808C469.156 195.235 469.636 195.448 470.201 195.448C470.628 195.448 470.996 195.341 471.305 195.128C471.625 194.915 471.838 194.611 471.945 194.216H474.105C473.913 195.112 473.47 195.832 472.777 196.376C472.084 196.92 471.23 197.192 470.217 197.192ZM475.923 197V189.064H477.747L477.939 190.552C478.227 190.04 478.616 189.635 479.107 189.336C479.608 189.027 480.195 188.872 480.867 188.872V191.032H480.291C479.843 191.032 479.443 191.101 479.091 191.24C478.739 191.379 478.461 191.619 478.259 191.96C478.067 192.301 477.971 192.776 477.971 193.384V197H475.923ZM483.371 187.832C482.997 187.832 482.688 187.72 482.443 187.496C482.208 187.272 482.091 186.989 482.091 186.648C482.091 186.307 482.208 186.029 482.443 185.816C482.688 185.592 482.997 185.48 483.371 185.48C483.744 185.48 484.048 185.592 484.283 185.816C484.528 186.029 484.651 186.307 484.651 186.648C484.651 186.989 484.528 187.272 484.283 187.496C484.048 187.72 483.744 187.832 483.371 187.832ZM482.347 197V189.064H484.395V197H482.347ZM491.236 197.192C490.639 197.192 490.116 197.08 489.668 196.856C489.22 196.632 488.858 196.317 488.58 195.912L488.356 197H486.532V185.48H488.58V190.2C488.836 189.848 489.172 189.539 489.588 189.272C490.015 189.005 490.564 188.872 491.236 188.872C491.983 188.872 492.65 189.053 493.236 189.416C493.823 189.779 494.287 190.275 494.628 190.904C494.97 191.533 495.14 192.248 495.14 193.048C495.14 193.848 494.97 194.563 494.628 195.192C494.287 195.811 493.823 196.301 493.236 196.664C492.65 197.016 491.983 197.192 491.236 197.192ZM490.804 195.4C491.455 195.4 491.994 195.181 492.42 194.744C492.847 194.307 493.06 193.741 493.06 193.048C493.06 192.355 492.847 191.784 492.42 191.336C491.994 190.888 491.455 190.664 490.804 190.664C490.143 190.664 489.599 190.888 489.172 191.336C488.756 191.773 488.548 192.339 488.548 193.032C488.548 193.725 488.756 194.296 489.172 194.744C489.599 195.181 490.143 195.4 490.804 195.4ZM500.826 197.192C500.026 197.192 499.316 197.021 498.698 196.68C498.079 196.339 497.594 195.859 497.242 195.24C496.89 194.621 496.714 193.907 496.714 193.096C496.714 192.275 496.884 191.544 497.226 190.904C497.578 190.264 498.058 189.768 498.666 189.416C499.284 189.053 500.01 188.872 500.842 188.872C501.62 188.872 502.308 189.043 502.906 189.384C503.503 189.725 503.967 190.195 504.298 190.792C504.639 191.379 504.81 192.035 504.81 192.76C504.81 192.877 504.804 193 504.794 193.128C504.794 193.256 504.788 193.389 504.778 193.528H498.746C498.788 194.147 499.002 194.632 499.386 194.984C499.78 195.336 500.255 195.512 500.81 195.512C501.226 195.512 501.572 195.421 501.85 195.24C502.138 195.048 502.351 194.803 502.49 194.504H504.57C504.42 195.005 504.17 195.464 503.818 195.88C503.476 196.285 503.05 196.605 502.538 196.84C502.036 197.075 501.466 197.192 500.826 197.192ZM500.842 190.536C500.34 190.536 499.898 190.68 499.514 190.968C499.13 191.245 498.884 191.672 498.778 192.248H502.73C502.698 191.725 502.506 191.309 502.154 191C501.802 190.691 501.364 190.536 500.842 190.536ZM506.532 197V189.064H508.356L508.548 190.552C508.836 190.04 509.226 189.635 509.716 189.336C510.218 189.027 510.804 188.872 511.476 188.872V191.032H510.9C510.452 191.032 510.052 191.101 509.7 191.24C509.348 191.379 509.071 191.619 508.868 191.96C508.676 192.301 508.58 192.776 508.58 193.384V197H506.532Z" fill="black"/>
<path d="M400 28L365 7.79274V48.2073L400 28ZM226.5 109V38H219.5V109H226.5ZM233 31.5H368.5V24.5H233V31.5ZM226.5 38C226.5 34.4101 229.41 31.5 233 31.5V24.5C225.544 24.5 219.5 30.5442 219.5 38H226.5Z" fill="#FF6501"/>
<path d="M400 189L365 209.207V168.793L400 189ZM226.5 108V179H219.5V108H226.5ZM233 185.5H368.5V192.5H233V185.5ZM226.5 179C226.5 182.59 229.41 185.5 233 185.5V192.5C225.544 192.5 219.5 186.456 219.5 179H226.5Z" fill="#FF6501"/>
<rect x="264" y="1" width="64" height="48" rx="9" fill="white" stroke="#FF6501" stroke-width="2"/>
<path d="M275.221 31V19.8H282.533V21.448H277.269V24.52H282.053V26.12H277.269V29.352H282.533V31H275.221ZM286.567 31L283.655 23.064H285.799L287.815 29.064L289.831 23.064H291.975L289.047 31H286.567ZM296.732 31.192C295.932 31.192 295.223 31.0213 294.604 30.68C293.985 30.3387 293.5 29.8587 293.148 29.24C292.796 28.6213 292.62 27.9067 292.62 27.096C292.62 26.2747 292.791 25.544 293.132 24.904C293.484 24.264 293.964 23.768 294.572 23.416C295.191 23.0533 295.916 22.872 296.748 22.872C297.527 22.872 298.215 23.0427 298.812 23.384C299.409 23.7253 299.873 24.1947 300.204 24.792C300.545 25.3787 300.716 26.0347 300.716 26.76C300.716 26.8773 300.711 27 300.7 27.128C300.7 27.256 300.695 27.3893 300.684 27.528H294.652C294.695 28.1467 294.908 28.632 295.292 28.984C295.687 29.336 296.161 29.512 296.716 29.512C297.132 29.512 297.479 29.4213 297.756 29.24C298.044 29.048 298.257 28.8027 298.396 28.504H300.476C300.327 29.0053 300.076 29.464 299.724 29.88C299.383 30.2853 298.956 30.6053 298.444 30.84C297.943 31.0747 297.372 31.192 296.732 31.192ZM296.748 24.536C296.247 24.536 295.804 24.68 295.42 24.968C295.036 25.2453 294.791 25.672 294.684 26.248H298.636C298.604 25.7253 298.412 25.3093 298.06 25C297.708 24.6907 297.271 24.536 296.748 24.536ZM302.438 31V23.064H304.246L304.406 24.408C304.652 23.9387 305.004 23.5653 305.462 23.288C305.932 23.0107 306.481 22.872 307.11 22.872C308.092 22.872 308.854 23.1813 309.398 23.8C309.942 24.4187 310.214 25.3253 310.214 26.52V31H308.166V26.712C308.166 26.0293 308.028 25.5067 307.75 25.144C307.473 24.7813 307.041 24.6 306.454 24.6C305.878 24.6 305.404 24.8027 305.03 25.208C304.668 25.6133 304.486 26.1787 304.486 26.904V31H302.438ZM315.709 31C314.877 31 314.21 30.7973 313.709 30.392C313.207 29.9867 312.957 29.2667 312.957 28.232V24.776H311.597V23.064H312.957L313.197 20.936H315.005V23.064H317.149V24.776H315.005V28.248C315.005 28.632 315.085 28.8987 315.245 29.048C315.415 29.1867 315.703 29.256 316.109 29.256H317.101V31H315.709Z" fill="black"/>
<rect x="264" y="85" width="64" height="48" rx="9" fill="white" stroke="#FF6501" stroke-width="2"/>
<path d="M275.221 115V103.8H282.533V105.448H277.269V108.52H282.053V110.12H277.269V113.352H282.533V115H275.221ZM286.567 115L283.655 107.064H285.799L287.815 113.064L289.831 107.064H291.975L289.047 115H286.567ZM296.732 115.192C295.932 115.192 295.223 115.021 294.604 114.68C293.985 114.339 293.5 113.859 293.148 113.24C292.796 112.621 292.62 111.907 292.62 111.096C292.62 110.275 292.791 109.544 293.132 108.904C293.484 108.264 293.964 107.768 294.572 107.416C295.191 107.053 295.916 106.872 296.748 106.872C297.527 106.872 298.215 107.043 298.812 107.384C299.409 107.725 299.873 108.195 300.204 108.792C300.545 109.379 300.716 110.035 300.716 110.76C300.716 110.877 300.711 111 300.7 111.128C300.7 111.256 300.695 111.389 300.684 111.528H294.652C294.695 112.147 294.908 112.632 295.292 112.984C295.687 113.336 296.161 113.512 296.716 113.512C297.132 113.512 297.479 113.421 297.756 113.24C298.044 113.048 298.257 112.803 298.396 112.504H300.476C300.327 113.005 300.076 113.464 299.724 113.88C299.383 114.285 298.956 114.605 298.444 114.84C297.943 115.075 297.372 115.192 296.732 115.192ZM296.748 108.536C296.247 108.536 295.804 108.68 295.42 108.968C295.036 109.245 294.791 109.672 294.684 110.248H298.636C298.604 109.725 298.412 109.309 298.06 109C297.708 108.691 297.271 108.536 296.748 108.536ZM302.438 115V107.064H304.246L304.406 108.408C304.652 107.939 305.004 107.565 305.462 107.288C305.932 107.011 306.481 106.872 307.11 106.872C308.092 106.872 308.854 107.181 309.398 107.8C309.942 108.419 310.214 109.325 310.214 110.52V115H308.166V110.712C308.166 110.029 308.028 109.507 307.75 109.144C307.473 108.781 307.041 108.6 306.454 108.6C305.878 108.6 305.404 108.803 305.03 109.208C304.668 109.613 304.486 110.179 304.486 110.904V115H302.438ZM315.709 115C314.877 115 314.21 114.797 313.709 114.392C313.207 113.987 312.957 113.267 312.957 112.232V108.776H311.597V107.064H312.957L313.197 104.936H315.005V107.064H317.149V108.776H315.005V112.248C315.005 112.632 315.085 112.899 315.245 113.048C315.415 113.187 315.703 113.256 316.109 113.256H317.101V115H315.709Z" fill="black"/>
<rect x="264" y="165" width="64" height="48" rx="9" fill="white" stroke="#FF6501" stroke-width="2"/>
<path d="M275.221 195V183.8H282.533V185.448H277.269V188.52H282.053V190.12H277.269V193.352H282.533V195H275.221ZM286.567 195L283.655 187.064H285.799L287.815 193.064L289.831 187.064H291.975L289.047 195H286.567ZM296.732 195.192C295.932 195.192 295.223 195.021 294.604 194.68C293.985 194.339 293.5 193.859 293.148 193.24C292.796 192.621 292.62 191.907 292.62 191.096C292.62 190.275 292.791 189.544 293.132 188.904C293.484 188.264 293.964 187.768 294.572 187.416C295.191 187.053 295.916 186.872 296.748 186.872C297.527 186.872 298.215 187.043 298.812 187.384C299.409 187.725 299.873 188.195 300.204 188.792C300.545 189.379 300.716 190.035 300.716 190.76C300.716 190.877 300.711 191 300.7 191.128C300.7 191.256 300.695 191.389 300.684 191.528H294.652C294.695 192.147 294.908 192.632 295.292 192.984C295.687 193.336 296.161 193.512 296.716 193.512C297.132 193.512 297.479 193.421 297.756 193.24C298.044 193.048 298.257 192.803 298.396 192.504H300.476C300.327 193.005 300.076 193.464 299.724 193.88C299.383 194.285 298.956 194.605 298.444 194.84C297.943 195.075 297.372 195.192 296.732 195.192ZM296.748 188.536C296.247 188.536 295.804 188.68 295.42 188.968C295.036 189.245 294.791 189.672 294.684 190.248H298.636C298.604 189.725 298.412 189.309 298.06 189C297.708 188.691 297.271 188.536 296.748 188.536ZM302.438 195V187.064H304.246L304.406 188.408C304.652 187.939 305.004 187.565 305.462 187.288C305.932 187.011 306.481 186.872 307.11 186.872C308.092 186.872 308.854 187.181 309.398 187.8C309.942 188.419 310.214 189.325 310.214 190.52V195H308.166V190.712C308.166 190.029 308.028 189.507 307.75 189.144C307.473 188.781 307.041 188.6 306.454 188.6C305.878 188.6 305.404 188.803 305.03 189.208C304.668 189.613 304.486 190.179 304.486 190.904V195H302.438ZM315.709 195C314.877 195 314.21 194.797 313.709 194.392C313.207 193.987 312.957 193.267 312.957 192.232V188.776H311.597V187.064H312.957L313.197 184.936H315.005V187.064H317.149V188.776H315.005V192.248C315.005 192.632 315.085 192.899 315.245 193.048C315.415 193.187 315.703 193.256 316.109 193.256H317.101V195H315.709Z" fill="black"/>
</svg>
